# xmcd
#
# Track frame offsets: 
#        150
#        20602
#        39516
#        56486
#        73695
#        97007
#        112645
#        133598
#        146834
#        166283
#        184023
#
# Disc length: 2710 seconds
#
# Revision: 0
# Processed by: cddbd v1.5.2PL0 Copyright (c) Steve Scherf et al.
# Submitted via: ExactAudioCopy v0.95b3
#
DISCID=950a940b
DTITLE=Tony Bennett - The Art of Romance  FLAC
DYEAR=1900
DGENRE=
TTITLE0=Close Enough For Love
TTITLE1=All In Fun
TTITLE2=Where Do You Start
TTITLE3=Little Did I Dream
TTITLE4=I Remember You
TTITLE5=Time To Smile
TTITLE6=All For You
TTITLE7=The Best Man
TTITLE8=Don't Like Goodbyes
TTITLE9=Being Alive
TTITLE10=Gone With The Wind
EXTD=
EXTT0=
EXTT1=
EXTT2=
EXTT3=
EXTT4=
EXTT5=
EXTT6=
EXTT7=
EXTT8=
EXTT9=
EXTT10=
PLAYORDER=
